<svg width="85" height="93" viewBox="0 0 85 93" fill="none" xmlns="http://www.w3.org/2000/svg">
<path d="M0.253906 12.9865C0.253906 6.36074 5.62515 0.989502 12.2509 0.989502H72.2359C78.8617 0.989502 84.2329 6.36074 84.2329 12.9865V80.1697C84.2329 86.7955 78.8617 92.1667 72.2359 92.1667H12.2509C5.62514 92.1667 0.253906 86.7955 0.253906 80.1697V12.9865Z" fill="#F58634"/>
<path d="M42.2433 64.6058L27.8469 53.4086L30.4383 51.3931L42.2273 60.5588L54.0324 51.3787L56.6397 53.4086L42.2433 64.6058ZM42.2433 57.7755L27.8469 46.5783L30.4383 44.5628L42.2273 53.7285L54.0324 44.5468L56.6397 46.5783L42.2433 57.7755ZM42.2433 50.9452L30.4543 41.7795L27.8469 39.748L42.2433 28.5508L56.6397 39.748L54.0164 41.7795L42.2433 50.9452Z" fill="white"/>
</svg>
