<svg width="85" height="93" viewBox="0 0 85 93" fill="none" xmlns="http://www.w3.org/2000/svg">
<path d="M0.946045 12.9865C0.946045 6.36074 6.31728 0.989502 12.943 0.989502H72.928C79.5538 0.989502 84.925 6.36074 84.925 12.9865V80.1697C84.925 86.7955 79.5538 92.1667 72.928 92.1667H12.943C6.31728 92.1667 0.946045 86.7955 0.946045 80.1697V12.9865Z" fill="#F58634"/>
<path d="M30.1389 59.375V48.1778H41.3361L36.1902 53.3285C37.9657 55.1441 40.3963 56.17 42.9357 56.1758C46.9978 56.1698 50.6162 53.6072 51.9703 49.7774H51.999C52.1823 49.2569 52.3209 48.7218 52.4133 48.1778H55.6317C54.8256 54.576 49.3845 59.3748 42.9357 59.375H42.9197C39.5266 59.3851 36.2704 58.0373 33.8772 55.6319L30.1389 59.375ZM33.4565 44.9786H30.2381C31.0439 38.5828 36.4813 33.7848 42.9277 33.7813H42.9357C46.3295 33.7705 49.5864 35.1184 51.9799 37.5244L55.7325 33.7813V44.9786H44.5353L49.6892 39.8279C47.9119 38.0102 45.478 36.984 42.9357 36.9806C38.8736 36.9866 35.2552 39.5492 33.9012 43.379H33.8724C33.6877 43.899 33.5491 44.4343 33.4581 44.9786H33.4565Z" fill="white"/>
</svg>
