<svg width="85" height="93" viewBox="0 0 85 93" fill="none" xmlns="http://www.w3.org/2000/svg">
<path d="M0.76123 12.9865C0.76123 6.36074 6.13247 0.989502 12.7582 0.989502H72.7432C79.369 0.989502 84.7402 6.36074 84.7402 12.9865V80.1697C84.7402 86.7955 79.369 92.1667 72.7432 92.1667H12.7582C6.13247 92.1667 0.76123 86.7955 0.76123 80.1697V12.9865Z" fill="#F58634"/>
<path d="M45.4061 34.2611C45.2541 33.5162 44.5988 32.9814 43.8385 32.9814H32.3534C31.4699 32.9814 30.7538 33.6976 30.7538 34.581V58.575C30.7538 59.4585 31.4699 60.1746 32.3534 60.1746C33.2368 60.1746 33.953 59.4585 33.953 58.575V48.9774H42.9107L43.2946 50.897C43.4398 51.646 44.0993 52.1844 44.8623 52.1766H53.1482C54.0316 52.1766 54.7478 51.4605 54.7478 50.577V37.7802C54.7478 36.8968 54.0316 36.1806 53.1482 36.1806H45.79L45.4061 34.2611Z" fill="white"/>
</svg>
