<svg width="17" height="17" viewBox="0 0 17 17" fill="none" xmlns="http://www.w3.org/2000/svg">
<path fill-rule="evenodd" clip-rule="evenodd" d="M16.5303 15.4696L13.9847 12.9248C16.5076 9.86681 16.3151 5.35493 13.4801 2.51992C10.4535 -0.506641 5.54649 -0.506641 2.51992 2.51992C-0.506641 5.54649 -0.506641 10.4535 2.51992 13.4801C5.35466 16.3148 9.866 16.5076 12.924 13.9854L15.4697 16.5304C16.177 17.2374 17.2375 16.1766 16.5303 15.4696ZM3.58058 3.58058C6.02136 1.13981 9.97864 1.13981 12.4194 3.58058C14.8602 6.02136 14.8602 9.97864 12.4194 12.4194C9.97864 14.8602 6.02136 14.8602 3.58058 12.4194C1.13981 9.97864 1.13981 6.02136 3.58058 3.58058Z" fill="#778195"/>
</svg>
