<svg width="19" height="12" viewBox="0 0 19 12" fill="none" xmlns="http://www.w3.org/2000/svg">
<path d="M17.6562 1.90625C18.0312 3.21875 18.0312 6.03125 18.0312 6.03125C18.0312 6.03125 18.0312 8.8125 17.6562 10.1562C17.4688 10.9062 16.875 11.4688 16.1562 11.6562C14.8125 12 9.5 12 9.5 12C9.5 12 4.15625 12 2.8125 11.6562C2.09375 11.4688 1.5 10.9062 1.3125 10.1562C0.9375 8.8125 0.9375 6.03125 0.9375 6.03125C0.9375 6.03125 0.9375 3.21875 1.3125 1.90625C1.5 1.15625 2.09375 0.5625 2.8125 0.375C4.15625 0 9.5 0 9.5 0C9.5 0 14.8125 0 16.1562 0.375C16.875 0.5625 17.4688 1.15625 17.6562 1.90625ZM7.75 8.5625L12.1875 6.03125L7.75 3.5V8.5625Z" fill="white"/>
</svg>
